<?xml version="1.0" encoding="UTF-8" standalone="no" ?>
<!DOCTYPE svg PUBLIC "-//W3C//DTD SVG 1.1//EN" "http://www.w3.org/Graphics/SVG/1.1/DTD/svg11.dtd">
<svg xmlns="http://www.w3.org/2000/svg" xmlns:xlink="http://www.w3.org/1999/xlink" version="1.1" width="500" height="500" viewBox="0 0 500 500" xml:space="preserve">
<desc>Created with Fabric.js 4.6.0</desc>
<defs>
</defs>
<g transform="matrix(1.63 0 0 1.62 205.07 251.25)" id="a9qDSHbSwAARKHuT347kA"  >
<g style="" vector-effect="non-scaling-stroke"   >
		<g transform="matrix(-0.59 0 0 0.59 28.92 0)" id="5hCHO87iC4-Q9sedLruo_"  >
<g style="" vector-effect="non-scaling-stroke"   >
		<g transform="matrix(1 0 0 1 0 -127.14)" id="cCwxywoYuHpUW3ZG166eh"  >
<path style="stroke: none; stroke-width: 1; stroke-dasharray: none; stroke-linecap: butt; stroke-dashoffset: 0; stroke-linejoin: miter; stroke-miterlimit: 4; fill: rgb(247,178,57); fill-rule: nonzero; opacity: 1;" vector-effect="non-scaling-stroke"  transform=" translate(-256, -128.86)" d="M 92.483 73.768 C 90.866 69.82000000000001 89.977 65.495 89.977 60.968 C 89.977 42.34700000000001 105.068 27.243000000000002 123.702 27.243000000000002 C 133.039 27.243000000000002 141.487 31.043000000000003 147.60399999999998 37.173 C 153.613 19.684 170.19899999999998 7.100000000000001 189.736 7.100000000000001 C 202.981 7.100000000000001 214.878 12.880000000000003 223.029 22.069000000000003 C 227.786 9.189 240.168 0 254.693 0 C 270.053 0 283.00100000000003 10.28 287.084 24.32 C 295.236 13.851 307.955 7.100999999999999 322.25 7.100999999999999 C 341.787 7.100999999999999 358.386 19.685 364.396 37.174 C 370.5 31.043 378.94800000000004 27.244 388.298 27.244 C 406.919 27.244 422.023 42.348 422.023 60.969 C 422.023 65.496 421.12 69.821 419.50300000000004 73.769 C 442.26000000000005 75.763 460.11300000000006 94.855 460.11300000000006 118.138 C 460.11300000000006 129.725 455.68000000000006 140.28900000000002 448.41800000000006 148.211 L 381.30600000000004 228.07 L 276.211 257.712 L 150.906 224.028 L 90.274 203.817 L 63.569 148.211 C 56.32 140.288 51.887 129.72500000000002 51.887 118.138 C 51.887 94.855 69.726 75.763 92.483 73.768 z" stroke-linecap="round" />
</g>
		<g transform="matrix(1 0 0 1 -0.01 74.11)" id="s5_2FyDrHUKTep9NI-QhY"  >
<path style="stroke: none; stroke-width: 1; stroke-dasharray: none; stroke-linecap: butt; stroke-dashoffset: 0; stroke-linejoin: miter; stroke-miterlimit: 4; fill: rgb(249,84,40); fill-rule: nonzero; opacity: 1;" vector-effect="non-scaling-stroke"  transform=" translate(-255.99, -330.11)" d="M 448.418 148.211 L 381.56100000000004 148.211 L 130.42500000000004 148.211 L 63.569000000000045 148.211 L 63.13800000000005 148.211 L 108.14000000000004 512 L 159.71700000000004 512 L 352.25600000000003 512 L 403.84700000000004 512 L 448.84900000000005 148.211 z" stroke-linecap="round" />
</g>
		<g transform="matrix(1 0 0 1 80.86 74.11)" id="26_3HTcKER4KHqzyxUOUU"  >
<path style="stroke: none; stroke-width: 1; stroke-dasharray: none; stroke-linecap: butt; stroke-dashoffset: 0; stroke-linejoin: miter; stroke-miterlimit: 4; fill: rgb(242,242,242); fill-rule: nonzero; opacity: 1;" vector-effect="non-scaling-stroke"  transform=" translate(-336.86, -330.11)" d="M 381.561 148.211 L 352.256 512 L 292.15 512 L 295.815 391.006 C 315.662 378.017 317.225 284.98199999999997 299.412 271.72299999999996 L 299.42499999999995 271.71 L 303.157 148.20999999999998 L 381.561 148.20999999999998 z" stroke-linecap="round" />
</g>
		<g transform="matrix(1 0 0 1 -80.87 74.11)" id="rDt42sbioZ0FIvXthIDSQ"  >
<path style="stroke: none; stroke-width: 1; stroke-dasharray: none; stroke-linecap: butt; stroke-dashoffset: 0; stroke-linejoin: miter; stroke-miterlimit: 4; fill: rgb(242,242,242); fill-rule: nonzero; opacity: 1;" vector-effect="non-scaling-stroke"  transform=" translate(-175.13, -330.11)" d="M 216.185 391.02 L 219.837 512 L 159.71699999999998 512 L 130.42499999999998 148.211 L 208.84199999999998 148.211 L 212.57399999999998 271.697 L 212.587 271.71 C 194.776 284.968 196.339 378.031 216.185 391.02 z" stroke-linecap="round" />
</g>
		<g transform="matrix(1 0 0 1 -91.68 -181.89)" id="kV5kLSe6MOFHTZlpusjAK"  >
<path style="stroke: none; stroke-width: 1; stroke-dasharray: none; stroke-linecap: butt; stroke-dashoffset: 0; stroke-linejoin: miter; stroke-miterlimit: 4; fill: rgb(224,155,45); fill-rule: nonzero; opacity: 1;" vector-effect="non-scaling-stroke"  transform=" translate(-164.32, -74.11)" d="M 189.489 73.768 C 187.872 69.82000000000001 186.983 65.495 186.983 60.968 C 186.983 42.34700000000001 202.074 27.243000000000002 220.708 27.243000000000002 C 230.045 27.243000000000002 238.493 31.043000000000003 244.61 37.173 C 249.562 22.762 261.704 11.700000000000003 276.75300000000004 8.246000000000002 C 270.839 3.119 263.136 0 254.693 0 C 240.168 0 227.786 9.189 223.03 22.07 C 214.87800000000001 12.881 202.981 7.101000000000001 189.737 7.101000000000001 C 170.2 7.101000000000001 153.614 19.685000000000002 147.605 37.174 C 141.488 31.043 133.04 27.244 123.70299999999999 27.244 C 105.06899999999999 27.244 89.97799999999998 42.348 89.97799999999998 60.969 C 89.97799999999998 65.496 90.86699999999998 69.821 92.48399999999998 73.769 C 69.72699999999998 75.763 51.887999999999984 94.855 51.887999999999984 118.138 C 51.887999999999984 129.725 56.320999999999984 140.28900000000002 63.569999999999986 148.211 L 130.426 148.211 L 160.575 148.211 C 153.326 140.288 148.893 129.72500000000002 148.893 118.138 C 148.892 94.855 166.731 75.763 189.489 73.768 z" stroke-linecap="round" />
</g>
		<g transform="matrix(1 0 0 1 -144.57 74.11)" id="BX-3A5dr-totMDRcQJjxl"  >
<path style="stroke: none; stroke-width: 1; stroke-dasharray: none; stroke-linecap: butt; stroke-dashoffset: 0; stroke-linejoin: miter; stroke-miterlimit: 4; fill: rgb(229,71,40); fill-rule: nonzero; opacity: 1;" vector-effect="non-scaling-stroke"  transform=" translate(-111.43, -330.11)" d="M 130.425 148.211 L 159.717 512 L 108.14000000000001 512 L 63.13800000000001 148.211 L 63.56900000000001 148.211 z" stroke-linecap="round" />
</g>
		<g transform="matrix(1 0 0 1 -0.01 74.11)" id="2SVsFRYZSgZXFZERaiF3Y"  >
<path style="stroke: none; stroke-width: 1; stroke-dasharray: none; stroke-linecap: butt; stroke-dashoffset: 0; stroke-linejoin: miter; stroke-miterlimit: 4; fill: rgb(247,178,57); fill-rule: nonzero; opacity: 1;" vector-effect="non-scaling-stroke"  transform=" translate(-255.99, -330.11)" d="M 299.412 271.724 C 317.224 284.98199999999997 328.758 306.19 328.758 330.106 C 328.758 355.598 315.662 378.018 295.815 391.007 C 284.376 398.512 270.687 402.86400000000003 255.987 402.86400000000003 C 241.301 402.86400000000003 227.611 398.51200000000006 216.18599999999998 391.021 C 196.33899999999997 378.03200000000004 183.22899999999998 355.59900000000005 183.22899999999998 330.106 C 183.22899999999998 306.19 194.77599999999998 284.969 212.588 271.711 C 224.701 262.684 239.724 257.348 255.987 257.348 C 272.249 257.347 287.286 262.696 299.412 271.724 z" stroke-linecap="round" />
</g>
</g>
</g>
		<g transform="matrix(1.05 0 0 1.05 81.27 -17.1)" id="bsnTmeEAJUbVWTnpP3BtE"  >
<path style="stroke: rgb(21,45,242); stroke-width: 0; stroke-dasharray: none; stroke-linecap: butt; stroke-dashoffset: 0; stroke-linejoin: miter; stroke-miterlimit: 4; fill: rgb(0,119,255); fill-rule: nonzero; opacity: 1;" vector-effect="non-scaling-stroke"  transform=" translate(0, 0)" d="M 0 -47.97602 C 26.48276 -47.97602 47.97602 -26.48277 47.97602 0 C 47.97602 26.48276 26.48277 47.97602 0 47.97602 C -26.48276 47.97602 -47.97602 26.48277 -47.97602 0 C -47.97602 -26.48276 -26.48277 -47.97602 0 -47.97602 z" stroke-linecap="round" />
</g>
		<g transform="matrix(1 0 0 1 -150.12 79.12)" id="NqSFnF63Uv5TrpSeRCu9M"  >
<path style="stroke: rgb(0,0,0); stroke-width: 1; stroke-dasharray: none; stroke-linecap: butt; stroke-dashoffset: 0; stroke-linejoin: miter; stroke-miterlimit: 4; fill: rgb(255,255,255); fill-opacity: 0; fill-rule: nonzero; opacity: 1;" vector-effect="non-scaling-stroke"  transform=" translate(0, 0)" d="M 0 0" stroke-linecap="round" />
</g>
		<g transform="matrix(1 0 0 1 -142.16 79.12)" id="mPO4wzo5YX3TqXBt51QyQ"  >
<path style="stroke: rgb(0,0,0); stroke-width: 1; stroke-dasharray: none; stroke-linecap: butt; stroke-dashoffset: 0; stroke-linejoin: miter; stroke-miterlimit: 4; fill: rgb(255,255,255); fill-opacity: 0; fill-rule: nonzero; opacity: 1;" vector-effect="non-scaling-stroke"  transform=" translate(0, 0)" d="M 0 0" stroke-linecap="round" />
</g>
		<g transform="matrix(1 0 0 1 -94.16 87.96)" id="cmPLJ7UsBVSENw6fXPkxl"  >
<path style="stroke: rgb(0,0,0); stroke-width: 1; stroke-dasharray: none; stroke-linecap: butt; stroke-dashoffset: 0; stroke-linejoin: miter; stroke-miterlimit: 4; fill: rgb(255,255,255); fill-opacity: 0; fill-rule: nonzero; opacity: 1;" vector-effect="non-scaling-stroke"  transform=" translate(0, 0)" d="M 0 0" stroke-linecap="round" />
</g>
		<g transform="matrix(1 0 0 1 -120.04 78.62)" id="-wEHMQXTxxSTwTz5g3jUu"  >
<path style="stroke: rgb(0,0,0); stroke-width: 1; stroke-dasharray: none; stroke-linecap: butt; stroke-dashoffset: 0; stroke-linejoin: miter; stroke-miterlimit: 4; fill: rgb(255,255,255); fill-opacity: 0; fill-rule: nonzero; opacity: 1;" vector-effect="non-scaling-stroke"  transform=" translate(0, 0)" d="M 0 0" stroke-linecap="round" />
</g>
		<g transform="matrix(0.95 0 0 0.95 -25.78 -15.94)" id="cWuZN8lxYtJWsf2FICedk"  >
<path style="stroke: rgb(21,45,242); stroke-width: 0; stroke-dasharray: none; stroke-linecap: butt; stroke-dashoffset: 0; stroke-linejoin: miter; stroke-miterlimit: 4; fill: rgb(0,119,255); fill-rule: nonzero; opacity: 1;" vector-effect="non-scaling-stroke"  transform=" translate(0, 0)" d="M 0 -47.97602 C 26.48276 -47.97602 47.97602 -26.48277 47.97602 0 C 47.97602 26.48276 26.48277 47.97602 0 47.97602 C -26.48276 47.97602 -47.97602 26.48277 -47.97602 0 C -47.97602 -26.48276 -26.48277 -47.97602 0 -47.97602 z" stroke-linecap="round" />
</g>
</g>
</g>
</svg>